<svg width="38" height="34" viewBox="0 0 38 34" fill="none" xmlns="http://www.w3.org/2000/svg">
<path d="M31.6667 3.97314H6.33333C5.91341 3.97314 5.51068 4.11977 5.21375 4.38078C4.91681 4.64178 4.75 4.99578 4.75 5.36489V27.6329C4.75 28.002 4.91681 28.356 5.21375 28.617C5.51068 28.878 5.91341 29.0246 6.33333 29.0246H31.6667C32.0866 29.0246 32.4893 28.878 32.7863 28.617C33.0832 28.356 33.25 28.002 33.25 27.6329V5.36489C33.25 4.99578 33.0832 4.64178 32.7863 4.38078C32.4893 4.11977 32.0866 3.97314 31.6667 3.97314ZM13.2034 25.3184H8.97275V13.3633H13.2034V25.3184ZM11.0881 11.7308C10.438 11.7308 9.81462 11.5038 9.35496 11.0997C8.89531 10.6957 8.63708 10.1477 8.63708 9.57632C8.63708 9.00493 8.89531 8.45695 9.35496 8.05291C9.81462 7.64888 10.438 7.4219 11.0881 7.4219C11.7381 7.4219 12.3615 7.64888 12.8212 8.05291C13.2809 8.45695 13.5391 9.00493 13.5391 9.57632C13.5391 10.1477 13.2809 10.6957 12.8212 11.0997C12.3615 11.5038 11.7381 11.7308 11.0881 11.7308ZM29.0352 25.3184H24.8092V19.5051C24.8092 18.1189 24.7808 16.336 22.6116 16.336C20.4108 16.336 20.0767 17.8475 20.0767 19.4076V25.3198H15.8539V13.3647H19.9073V14.9986H19.9658C20.5279 14.0591 21.9086 13.0682 23.9622 13.0682C28.2435 13.0682 29.0336 15.5427 29.0336 18.7633L29.0352 25.3184Z" fill="black"/>
</svg>
