<svg width="33" height="24" viewBox="0 0 33 24" fill="none" xmlns="http://www.w3.org/2000/svg">
<path fill-rule="evenodd" clip-rule="evenodd" d="M16.5 0C7.38646 0 0 5.36537 0 11.9853C0 17.2797 4.72634 21.7727 11.284 23.3589C12.1095 23.467 12.4073 23.0981 12.4073 22.7809C12.4073 22.4961 12.394 21.7415 12.3891 20.7429C7.79838 21.4663 6.82895 19.1351 6.82895 19.1351C6.08121 17.7508 4.99764 17.3819 4.99764 17.3819C3.5005 16.6381 5.11179 16.6549 5.11179 16.6549C6.7694 16.739 7.63791 17.8902 7.63791 17.8902C9.11024 19.7215 11.5024 19.1928 12.4387 18.8863C12.5892 18.1113 13.0194 17.5826 13.4892 17.2833C9.82655 16.9817 5.97534 15.9531 5.97534 11.3592C5.97534 10.053 6.61886 8.98114 7.66934 8.14479C7.50226 7.84077 6.93152 6.6211 7.83312 4.97243C7.83312 4.97243 9.21777 4.64919 12.3692 6.19932C13.7151 5.93336 15.1035 5.7976 16.4983 5.79556C17.8932 5.79721 19.2817 5.93297 20.6275 6.19932C23.7806 4.64799 25.1636 4.97243 25.1636 4.97243C26.0652 6.6211 25.4994 7.84077 25.3274 8.14479C26.3861 8.98114 27.0214 10.0518 27.0214 11.3592C27.0214 15.9651 23.1668 16.9769 19.491 17.2737C20.0783 17.6438 20.6076 18.3744 20.6076 19.492C20.6076 21.095 20.5878 22.388 20.5878 22.7809C20.5878 23.1017 20.8822 23.4742 21.7243 23.3565C28.2786 21.7679 33 17.2785 33 11.9853C33 5.36537 25.6135 0 16.5 0Z" fill="black"/>
</svg>
