<svg width="208" height="49" viewBox="0 0 208 49" fill="none" xmlns="http://www.w3.org/2000/svg">
<path d="M39.136 2.304V36H30.928V15.792L23.392 36H16.768L9.184 15.744V36H0.976V2.304H10.672L20.128 25.632L29.488 2.304H39.136ZM57.2305 36.384C54.6065 36.384 52.2385 35.824 50.1265 34.704C48.0465 33.584 46.3985 31.984 45.1825 29.904C43.9985 27.824 43.4065 25.392 43.4065 22.608C43.4065 19.856 44.0145 17.44 45.2305 15.36C46.4465 13.248 48.1105 11.632 50.2225 10.512C52.3345 9.392 54.7025 8.832 57.3265 8.832C59.9505 8.832 62.3185 9.392 64.4305 10.512C66.5425 11.632 68.2065 13.248 69.4225 15.36C70.6385 17.44 71.2465 19.856 71.2465 22.608C71.2465 25.36 70.6225 27.792 69.3745 29.904C68.1585 31.984 66.4785 33.584 64.3345 34.704C62.2225 35.824 59.8545 36.384 57.2305 36.384ZM57.2305 29.28C58.7985 29.28 60.1265 28.704 61.2145 27.552C62.3345 26.4 62.8945 24.752 62.8945 22.608C62.8945 20.464 62.3505 18.816 61.2625 17.664C60.2065 16.512 58.8945 15.936 57.3265 15.936C55.7265 15.936 54.3985 16.512 53.3425 17.664C52.2865 18.784 51.7585 20.432 51.7585 22.608C51.7585 24.752 52.2705 26.4 53.2945 27.552C54.3505 28.704 55.6625 29.28 57.2305 29.28ZM73.969 22.608C73.969 19.824 74.529 17.392 75.649 15.312C76.801 13.232 78.385 11.632 80.401 10.512C82.449 9.392 84.785 8.832 87.409 8.832C90.769 8.832 93.569 9.712 95.809 11.472C98.081 13.232 99.569 15.712 100.273 18.912H91.537C90.801 16.864 89.377 15.84 87.265 15.84C85.761 15.84 84.561 16.432 83.665 17.616C82.769 18.768 82.321 20.432 82.321 22.608C82.321 24.784 82.769 26.464 83.665 27.648C84.561 28.8 85.761 29.376 87.265 29.376C89.377 29.376 90.801 28.352 91.537 26.304H100.273C99.569 29.44 98.081 31.904 95.809 33.696C93.537 35.488 90.737 36.384 87.409 36.384C84.785 36.384 82.449 35.824 80.401 34.704C78.385 33.584 76.801 31.984 75.649 29.904C74.529 27.824 73.969 25.392 73.969 22.608ZM121.032 36L112.872 24.768V36H104.664V0.48H112.872V20.112L120.984 9.216H131.112L119.976 22.656L131.208 36H121.032ZM160.783 9.216V36H152.575V32.352C151.743 33.536 150.607 34.496 149.167 35.232C147.759 35.936 146.191 36.288 144.463 36.288C142.415 36.288 140.607 35.84 139.039 34.944C137.471 34.016 136.255 32.688 135.391 30.96C134.527 29.232 134.095 27.2 134.095 24.864V9.216H142.255V23.76C142.255 25.552 142.719 26.944 143.647 27.936C144.575 28.928 145.823 29.424 147.391 29.424C148.991 29.424 150.255 28.928 151.183 27.936C152.111 26.944 152.575 25.552 152.575 23.76V9.216H160.783ZM174.887 13.008C175.687 11.76 176.791 10.752 178.199 9.984C179.607 9.216 181.255 8.832 183.143 8.832C185.351 8.832 187.351 9.392 189.143 10.512C190.935 11.632 192.343 13.232 193.367 15.312C194.423 17.392 194.951 19.808 194.951 22.56C194.951 25.312 194.423 27.744 193.367 29.856C192.343 31.936 190.935 33.552 189.143 34.704C187.351 35.824 185.351 36.384 183.143 36.384C181.287 36.384 179.639 36 178.199 35.232C176.791 34.464 175.687 33.472 174.887 32.256V48.768H166.679V9.216H174.887V13.008ZM186.599 22.56C186.599 20.512 186.023 18.912 184.871 17.76C183.751 16.576 182.359 15.984 180.695 15.984C179.063 15.984 177.671 16.576 176.519 17.76C175.399 18.944 174.839 20.56 174.839 22.608C174.839 24.656 175.399 26.272 176.519 27.456C177.671 28.64 179.063 29.232 180.695 29.232C182.327 29.232 183.719 28.64 184.871 27.456C186.023 26.24 186.599 24.608 186.599 22.56ZM203.097 36.384C201.657 36.384 200.473 35.968 199.545 35.136C198.649 34.272 198.201 33.216 198.201 31.968C198.201 30.688 198.649 29.616 199.545 28.752C200.473 27.888 201.657 27.456 203.097 27.456C204.505 27.456 205.657 27.888 206.553 28.752C207.481 29.616 207.945 30.688 207.945 31.968C207.945 33.216 207.481 34.272 206.553 35.136C205.657 35.968 204.505 36.384 203.097 36.384Z" fill="#000211"/>
</svg>
