<svg width="40" height="36" viewBox="0 0 40 36" fill="none" xmlns="http://www.w3.org/2000/svg">
<path d="M34.9117 12.8656C34.8948 11.756 34.6585 10.6575 34.2133 9.61913C33.8272 8.74329 33.2376 7.94786 32.4819 7.28368C31.7263 6.61949 30.8214 6.10116 29.825 5.76179C28.6589 5.37702 27.427 5.16897 26.1817 5.14649C24.5783 5.0835 24.07 5.06592 20 5.06592C15.93 5.06592 15.4083 5.06592 13.8167 5.14649C12.5719 5.16913 11.3406 5.37718 10.175 5.76179C9.17843 6.10092 8.27336 6.61917 7.51772 7.28339C6.76207 7.9476 6.17248 8.74315 5.78666 9.61913C5.34805 10.6434 5.11187 11.726 5.08833 12.8202C5.01666 14.2309 4.995 14.6778 4.995 18.2553C4.995 21.8328 4.995 22.2899 5.08833 23.6904C5.11333 24.7863 5.34833 25.8674 5.78666 26.8944C6.17312 27.7701 6.76316 28.5653 7.51906 29.2293C8.27495 29.8932 9.1801 30.4112 10.1767 30.7503C11.3391 31.1505 12.5706 31.3734 13.8183 31.4095C15.4233 31.4725 15.9317 31.4916 20.0017 31.4916C24.0717 31.4916 24.5933 31.4916 26.185 31.4095C27.4303 31.388 28.6623 31.1804 29.8283 30.7957C30.8245 30.4559 31.7292 29.9375 32.4847 29.2733C33.2403 28.6092 33.8301 27.814 34.2167 26.9383C34.655 25.9128 34.89 24.8317 34.915 23.7344C34.9867 22.3251 35.0083 21.8782 35.0083 18.2992C35.005 14.7217 35.005 14.2676 34.9117 12.8656ZM19.99 25.0207C15.7333 25.0207 12.285 21.9896 12.285 18.248C12.285 14.5064 15.7333 11.4753 19.99 11.4753C22.0335 11.4753 23.9933 12.1888 25.4383 13.459C26.8832 14.7291 27.695 16.4517 27.695 18.248C27.695 20.0442 26.8832 21.7669 25.4383 23.037C23.9933 24.3071 22.0335 25.0207 19.99 25.0207ZM28.0017 12.804C27.7657 12.8042 27.5319 12.7635 27.3138 12.6842C27.0958 12.6049 26.8976 12.4886 26.7307 12.3419C26.5639 12.1952 26.4315 12.0211 26.3413 11.8294C26.2511 11.6377 26.2048 11.4322 26.205 11.2248C26.205 11.0175 26.2514 10.8122 26.3417 10.6207C26.4319 10.4292 26.5642 10.2552 26.731 10.1086C26.8977 9.962 27.0957 9.84572 27.3136 9.76639C27.5315 9.68707 27.765 9.64623 28.0008 9.64623C28.2367 9.64623 28.4702 9.68707 28.6881 9.76639C28.9059 9.84572 29.1039 9.962 29.2707 10.1086C29.4374 10.2552 29.5697 10.4292 29.66 10.6207C29.7502 10.8122 29.7967 11.0175 29.7967 11.2248C29.7967 12.0979 28.9933 12.804 28.0017 12.804Z" fill="black"/>
<path d="M19.99 22.6826C22.7542 22.6826 24.995 20.7129 24.995 18.2832C24.995 15.8535 22.7542 13.8838 19.99 13.8838C17.2258 13.8838 14.985 15.8535 14.985 18.2832C14.985 20.7129 17.2258 22.6826 19.99 22.6826Z" fill="black"/>
</svg>
